<svg width="20" height="20" viewBox="0 0 20 20" fill="none" xmlns="http://www.w3.org/2000/svg">
<path d="M6.66732 18.334C7.12755 18.334 7.50065 17.9609 7.50065 17.5007C7.50065 17.0404 7.12755 16.6673 6.66732 16.6673C6.20708 16.6673 5.83398 17.0404 5.83398 17.5007C5.83398 17.9609 6.20708 18.334 6.66732 18.334Z" fill="#FFCC00"/>
<path d="M15.834 18.334C16.2942 18.334 16.6673 17.9609 16.6673 17.5007C16.6673 17.0404 16.2942 16.6673 15.834 16.6673C15.3737 16.6673 15.0007 17.0404 15.0007 17.5007C15.0007 17.9609 15.3737 18.334 15.834 18.334Z" fill="#FFCC00"/>
<path d="M1.70898 1.70898H3.37565L5.59232 12.059C5.67363 12.438 5.88454 12.7769 6.18874 13.0172C6.49294 13.2575 6.87141 13.3843 7.25898 13.3757H15.409C15.7883 13.375 16.1561 13.2451 16.4515 13.0072C16.747 12.7693 16.9524 12.4378 17.034 12.0673L18.409 5.87565H4.26732" fill="#FFCC00"/>
<path d="M1.70898 1.70898H3.37565L5.59232 12.059C5.67363 12.438 5.88454 12.7769 6.18874 13.0172C6.49294 13.2575 6.87141 13.3843 7.25898 13.3757H15.409C15.7883 13.375 16.1561 13.2451 16.4515 13.0072C16.747 12.7693 16.9524 12.4378 17.034 12.0673L18.409 5.87565H4.26732M7.50065 17.5007C7.50065 17.9609 7.12755 18.334 6.66732 18.334C6.20708 18.334 5.83398 17.9609 5.83398 17.5007C5.83398 17.0404 6.20708 16.6673 6.66732 16.6673C7.12755 16.6673 7.50065 17.0404 7.50065 17.5007ZM16.6673 17.5007C16.6673 17.9609 16.2942 18.334 15.834 18.334C15.3737 18.334 15.0007 17.9609 15.0007 17.5007C15.0007 17.0404 15.3737 16.6673 15.834 16.6673C16.2942 16.6673 16.6673 17.0404 16.6673 17.5007Z" stroke="#FFCC00" stroke-width="2" stroke-linecap="round" stroke-linejoin="round"/>
</svg>
