<svg width="18" height="18" viewBox="0 0 18 18" fill="none" xmlns="http://www.w3.org/2000/svg">
<path d="M8.49961 5.39961V5.89961H9.49961V5.39961H8.99961H8.49961ZM9.49961 5.38761V4.88761H8.49961V5.38761H8.99961H9.49961ZM8.99961 13.1996H9.49961V8.39961H8.99961H8.49961V13.1996H8.99961ZM8.99961 5.39961H9.49961V5.38761H8.99961H8.49961V5.39961H8.99961ZM7.19961 8.99961V9.49961H8.99961V8.99961V8.49961H7.19961V8.99961ZM7.19961 12.5996V13.0996H10.7996V12.5996V12.0996H7.19961V12.5996ZM8.99961 0.599609V1.09961C13.3627 1.09961 16.8996 4.63656 16.8996 8.99961H17.3996L17.8996 8.99961C17.8996 4.08428 13.9149 0.0996098 8.99961 0.0996094L8.99961 0.599609ZM0.599609 8.99961H1.09961C1.09961 4.63656 4.63656 1.09961 8.99961 1.09961V0.599609L8.99961 0.0996094C4.08428 0.099609 0.0996098 4.08427 0.0996094 8.99961H0.599609ZM8.99961 17.3996V16.8996C4.63656 16.8996 1.09961 13.3627 1.09961 8.99961H0.599609H0.0996094C0.099609 13.9149 4.08427 17.8996 8.99961 17.8996V17.3996ZM8.99961 17.3996V17.8996C13.9149 17.8996 17.8996 13.9149 17.8996 8.99961L17.3996 8.99961H16.8996C16.8996 13.3627 13.3627 16.8996 8.99961 16.8996V17.3996Z" fill="#333333"/>
</svg>
