<svg width="16" height="16" viewBox="0 0 16 16" fill="none" xmlns="http://www.w3.org/2000/svg">
<path d="M8.00098 0.833008C11.9589 0.833008 15.1677 4.04121 15.168 7.99902C15.1679 11.957 11.959 15.166 8.00098 15.166C4.04314 15.1658 0.834072 11.9569 0.833984 7.99902C0.834248 4.04132 4.04325 0.833184 8.00098 0.833008ZM7.00098 6.83301C6.72498 6.83318 6.50098 7.05697 6.50098 7.33301C6.50098 7.60904 6.72498 7.83283 7.00098 7.83301H7.83398V11.333C7.83398 11.609 8.05799 11.8328 8.33398 11.833C8.61013 11.833 8.83398 11.6091 8.83398 11.333V7.33301C8.83398 7.05687 8.61013 6.83301 8.33398 6.83301H7.00098ZM8.33398 4.16602C8.0581 4.16619 7.83416 4.39013 7.83398 4.66602V5.33301C7.83416 5.60889 8.0581 5.83283 8.33398 5.83301C8.61002 5.83301 8.83381 5.609 8.83398 5.33301V4.66602C8.83381 4.39002 8.61002 4.16602 8.33398 4.16602Z" fill="#333333"/>
</svg>
