<svg width="20" height="22" viewBox="0 0 20 22" fill="none" xmlns="http://www.w3.org/2000/svg">
<path d="M19 1V7H13" stroke="#333333" stroke-width="2" stroke-linecap="round" stroke-linejoin="round"/>
<path d="M1 10.25C1.00158 8.51173 1.5056 6.81105 2.45125 5.35308C3.39691 3.89511 4.74382 2.74213 6.32951 2.03321C7.9152 1.32428 9.67195 1.0897 11.3879 1.35776C13.1038 1.62581 14.7056 2.38505 16 3.54389L19 6.24635" stroke="#333333" stroke-width="2" stroke-linecap="round" stroke-linejoin="round"/>
<path d="M1 20.25V14.25H7" stroke="#333333" stroke-width="2" stroke-linecap="round" stroke-linejoin="round"/>
<path d="M19 10.125C18.9984 11.8633 18.4944 13.564 17.5487 15.0219C16.6031 16.4799 15.2562 17.6329 13.6705 18.3418C12.0848 19.0507 10.3281 19.2853 8.61214 19.0172C6.89623 18.7492 5.29445 17.99 4 16.8311L1 14.1286" stroke="#333333" stroke-width="2" stroke-linecap="round" stroke-linejoin="round"/>
</svg>
