<svg width="280" height="63" viewBox="0 0 280 63" fill="none" xmlns="http://www.w3.org/2000/svg">
<g opacity="0.5">
<path d="M71.2372 9.14551H64.002V23.9021H63.9027L58.4481 9.14551H50.7163L57.5081 24.7391L50.0742 43.6939H58.1039L63.9027 28.9373H64.002V43.6939H71.2372V28.9373H71.3365L77.1354 43.6939H85.165L77.7311 24.7391L84.5229 9.14551H76.7911L71.3365 23.9021H71.2372V9.14551ZM104.402 9.14551H86.7537V43.6939H100.933L106.182 38.6586V28.1465L100.933 23.1112H93.989V15.6571H104.402V9.14551ZM93.989 29.6294H98.9471V37.1955H93.989V29.6294ZM110.247 9.14551V43.6939H116.549L122.248 25.899H122.348V43.6939H129.583V9.14551H123.321L117.621 26.9404H117.522V9.14551H110.247ZM163.932 14.1808L158.683 9.14551H145.298V43.6939H152.533V32.1404H158.683L163.932 27.1117V14.1808ZM156.697 15.6571V25.6288H152.533V15.6571H156.697ZM186.042 14.1808L180.786 9.14551H171.869L166.613 14.1808V38.6586L171.869 43.6939H180.786L186.042 38.6586V14.1808ZM178.807 15.6571V37.1955H173.848V15.6571H178.807ZM209.641 14.1808L204.385 9.14551H195.475L190.179 14.1808V38.6586L195.475 43.6939H204.398L209.654 38.6586V28.9373H202.399V37.1955H197.461V15.6571H202.412V22.373H209.641V14.1808ZM233.134 14.1808L227.911 9.14551H218.961L213.705 14.1808V38.6586L218.961 43.6939H227.911L233.167 38.6586V28.9373H225.925V37.1955H220.967V15.6571H225.925V22.373H233.161V14.1808H233.134ZM237.179 9.14551V43.6939H243.474L249.18 25.899H249.273V43.6939H256.515V9.14551H250.219L244.52 26.9404H244.46V9.14551H237.179ZM260.678 9.14551V43.6939H266.967L272.667 25.899H272.766V43.6939H280.001V9.14551H273.706L268.006 26.9404H267.907V9.14551H260.678Z" fill="white"/>
<path d="M110.083 57.6312C109.672 58.0513 109.414 58.6063 109.354 59.2013C109.294 59.7963 109.435 60.3946 109.753 60.8939C110.071 61.3932 110.547 61.7627 111.099 61.9392C111.65 62.1158 112.244 62.0885 112.779 61.8619C113.313 61.6354 113.755 61.2237 114.029 60.6971C114.304 60.1705 114.393 59.5617 114.282 58.9746C114.171 58.3874 113.867 57.8583 113.421 57.4776C112.976 57.0969 112.417 56.8882 111.839 56.8872C111.513 56.8799 111.189 56.9422 110.887 57.0702C110.585 57.1982 110.311 57.3892 110.083 57.6312ZM109.332 61.9578C109.011 61.6286 108.757 61.2369 108.583 60.8053C108.41 60.3737 108.32 59.9107 108.32 59.4432C108.32 58.9756 108.41 58.5126 108.583 58.081C108.757 57.6494 109.011 57.2577 109.332 56.9285C110.01 56.2687 110.905 55.9015 111.836 55.9015C112.766 55.9015 113.661 56.2687 114.34 56.9285C114.66 57.2577 114.914 57.6494 115.088 58.081C115.262 58.5126 115.351 58.9756 115.351 59.4432C115.351 59.9107 115.262 60.3737 115.088 60.8053C114.914 61.2369 114.66 61.6286 114.34 61.9578C113.661 62.6176 112.766 62.9848 111.836 62.9848C110.905 62.9848 110.01 62.6176 109.332 61.9578ZM121.302 55.902C121.631 55.9014 121.957 55.9477 122.273 56.0397C122.544 56.1121 122.804 56.2234 123.045 56.3704C123.244 56.5082 123.424 56.6322 123.577 56.7631C123.695 56.8649 123.806 56.9754 123.909 57.0938L124.009 57.2316L123.344 57.9206C123.32 57.8838 123.294 57.8492 123.264 57.8172C123.192 57.7246 123.112 57.6393 123.025 57.5623C122.899 57.441 122.761 57.3346 122.613 57.2454C122.433 57.1434 122.244 57.0626 122.047 57.0043C121.806 56.9259 121.555 56.8864 121.302 56.8872C120.978 56.8853 120.656 56.9502 120.356 57.078C120.056 57.2058 119.783 57.394 119.554 57.6317C119.324 57.8694 119.143 58.1519 119.019 58.4629C118.896 58.7738 118.833 59.107 118.835 59.4432C118.831 59.7804 118.891 60.1152 119.014 60.4278C119.136 60.7404 119.318 61.0244 119.547 61.2632C119.777 61.5021 120.051 61.6908 120.352 61.8184C120.654 61.946 120.977 62.0098 121.302 62.0061C121.555 62.0091 121.806 61.9719 122.047 61.8958C122.257 61.8358 122.457 61.7428 122.639 61.6203C122.783 61.5269 122.921 61.4233 123.051 61.3102C123.146 61.2276 123.235 61.1378 123.317 61.0415L123.391 60.9175L124.056 61.6065L123.943 61.758C123.889 61.8178 123.776 61.928 123.603 62.0887C123.429 62.2426 123.242 62.3809 123.045 62.5021C122.803 62.6471 122.543 62.7583 122.273 62.8328C121.67 63.0118 121.031 63.0246 120.421 62.8699C119.811 62.7153 119.251 62.3985 118.795 61.9509C118.475 61.6217 118.22 61.23 118.047 60.7984C117.873 60.3668 117.784 59.9039 117.784 59.4363C117.784 58.9687 117.873 58.5057 118.047 58.0741C118.22 57.6425 118.475 57.2508 118.795 56.9216C119.124 56.5852 119.515 56.3209 119.945 56.1445C120.374 55.9681 120.834 55.8833 121.296 55.8951L121.302 55.902ZM132.083 55.9984V62.8879H131.038V59.8841H127.76V62.8879H126.716V55.9984H127.76V58.9058H131.038V55.9984H132.083ZM136.685 57.6312C136.273 58.0513 136.016 58.6063 135.955 59.2013C135.895 59.7963 136.036 60.3946 136.354 60.8939C136.672 61.3932 137.148 61.7627 137.7 61.9392C138.252 62.1158 138.845 62.0885 139.38 61.8619C139.915 61.6354 140.357 61.2237 140.631 60.6971C140.905 60.1705 140.994 59.5617 140.883 58.9746C140.772 58.3874 140.468 57.8583 140.023 57.4776C139.577 57.0969 139.018 56.8882 138.44 56.8872C138.114 56.8799 137.79 56.9422 137.488 57.0702C137.186 57.1982 136.912 57.3892 136.685 57.6312ZM135.933 61.9578C135.613 61.6286 135.358 61.2369 135.185 60.8053C135.011 60.3737 134.922 59.9107 134.922 59.4432C134.922 58.9756 135.011 58.5126 135.185 58.081C135.358 57.6494 135.613 57.2577 135.933 56.9285C136.611 56.2687 137.507 55.9015 138.437 55.9015C139.367 55.9015 140.263 56.2687 140.941 56.9285C141.261 57.2577 141.516 57.6494 141.689 58.081C141.863 58.5126 141.952 58.9756 141.952 59.4432C141.952 59.9107 141.863 60.3737 141.689 60.8053C141.516 61.2369 141.261 61.6286 140.941 61.9578C140.263 62.6176 139.367 62.9848 138.437 62.9848C137.507 62.9848 136.611 62.6176 135.933 61.9578ZM147.644 62.8879H144.825V55.9984H147.551C148.061 55.9931 148.554 56.1903 148.928 56.5496C149.104 56.7071 149.246 56.9015 149.345 57.12C149.443 57.3385 149.496 57.5761 149.5 57.8172C149.5 58.0818 149.443 58.3431 149.333 58.582C149.256 58.7609 149.145 58.9224 149.008 59.0574L148.835 59.202L148.941 59.264C148.981 59.264 149.067 59.3605 149.181 59.4638C149.296 59.5601 149.399 59.6712 149.486 59.7945C149.583 59.9425 149.661 60.1022 149.719 60.2699C149.794 60.4628 149.832 60.6685 149.832 60.8762C149.833 61.1441 149.778 61.4089 149.673 61.6535C149.567 61.8981 149.413 62.1168 149.22 62.2954C148.806 62.6945 148.256 62.9075 147.691 62.8879H147.644ZM145.842 61.9509H147.644C147.789 61.9547 147.933 61.9281 148.067 61.8727C148.201 61.8174 148.323 61.7344 148.426 61.6288C148.528 61.5232 148.609 61.3972 148.664 61.2584C148.718 61.1196 148.744 60.9708 148.742 60.8211C148.744 60.6713 148.718 60.5226 148.664 60.3837C148.609 60.2449 148.528 60.1189 148.426 60.0133C148.323 59.9078 148.201 59.8248 148.067 59.7694C147.933 59.7141 147.789 59.6874 147.644 59.6912H145.842V61.9509ZM147.505 56.9354H145.842V58.8093H147.551C147.67 58.8093 147.788 58.7851 147.897 58.738C148.007 58.6909 148.107 58.6219 148.191 58.5349C148.275 58.4479 148.341 58.3446 148.387 58.2309C148.432 58.1172 148.456 57.9954 148.456 57.8724C148.456 57.7493 148.432 57.6275 148.387 57.5138C148.341 57.4001 148.275 57.2968 148.191 57.2098C148.107 57.1228 148.007 57.0538 147.897 57.0067C147.788 56.9596 147.67 56.9354 147.551 56.9354H147.505ZM151.674 62.8879L154.428 55.9984H155.532L158.285 62.8879H157.194L156.476 61.0691H153.536L152.818 62.8879H151.674ZM154.953 57.2316L153.862 60.0839H156.044L154.953 57.2316ZM166.066 55.9984V62.8879H165.022V59.8841H161.743V62.8879H160.699V55.9984H161.743V58.9058H165.022V55.9984H166.066ZM175.928 62.8879H173.082V55.9984H175.788C176.298 55.9931 176.791 56.1903 177.165 56.5496C177.34 56.7074 177.482 56.9021 177.579 57.1206C177.676 57.3391 177.728 57.5765 177.73 57.8172C177.733 58.0813 177.678 58.3426 177.571 58.582C177.493 58.7609 177.382 58.9224 177.245 59.0574L177.072 59.202L177.172 59.264L177.418 59.4638C177.533 59.5601 177.636 59.6712 177.724 59.7945C177.817 59.9441 177.895 60.1034 177.956 60.2699C178.031 60.4628 178.069 60.6685 178.069 60.8762C178.07 61.1448 178.015 61.4104 177.909 61.6552C177.802 61.9 177.646 62.1183 177.451 62.2954C177.247 62.4934 177.008 62.6478 176.747 62.7494C176.485 62.8511 176.207 62.8982 175.928 62.8879ZM174.152 61.9509H175.955C176.099 61.9537 176.242 61.9265 176.376 61.8707C176.51 61.815 176.632 61.732 176.734 61.6266C176.837 61.5213 176.917 61.3956 176.972 61.2573C177.027 61.1189 177.054 60.9706 177.052 60.8211C177.055 60.6713 177.028 60.5226 176.974 60.3837C176.92 60.2449 176.839 60.1189 176.736 60.0133C176.634 59.9078 176.512 59.8248 176.377 59.7694C176.243 59.7141 176.099 59.6874 175.955 59.6912H174.152V61.9509ZM175.815 56.9354H174.152V58.8093H175.815C176.055 58.8093 176.285 58.7106 176.455 58.5349C176.624 58.3592 176.719 58.1209 176.719 57.8724C176.719 57.6239 176.624 57.3855 176.455 57.2098C176.285 57.0341 176.055 56.9354 175.815 56.9354ZM188.577 62.8879H184.161C184.156 62.4942 184.217 62.1026 184.341 61.7305C184.452 61.4123 184.619 61.118 184.833 60.8624C185.035 60.63 185.257 60.4178 185.498 60.2286C185.737 60.0357 185.97 59.8634 186.209 59.705C186.449 59.5465 186.668 59.3881 186.874 59.2365C187.067 59.0868 187.231 58.9025 187.36 58.6922C187.484 58.4855 187.549 58.2466 187.546 58.0033C187.554 57.8504 187.529 57.6977 187.476 57.5551C187.422 57.4126 187.339 57.2836 187.234 57.1765C186.989 56.9641 186.675 56.8558 186.356 56.8734C186.18 56.8725 186.006 56.9076 185.844 56.9767C185.705 57.033 185.578 57.1173 185.471 57.2247C185.385 57.3212 185.312 57.4108 185.239 57.5072C185.186 57.5871 185.141 57.6725 185.105 57.7621L185.072 57.8586L184.221 57.4659C184.233 57.4068 184.251 57.3492 184.274 57.2936C184.327 57.1615 184.392 57.0346 184.467 56.9147C184.573 56.7416 184.698 56.582 184.839 56.4393C185.022 56.2753 185.231 56.1469 185.458 56.0604C185.744 55.944 186.049 55.8856 186.356 55.8882C186.949 55.8665 187.527 56.0866 187.965 56.5013C188.166 56.6918 188.325 56.9241 188.433 57.183C188.541 57.4419 188.594 57.7214 188.59 58.0033C188.591 58.3055 188.527 58.6042 188.404 58.8782C188.292 59.1379 188.132 59.372 187.932 59.5672C187.739 59.7463 187.526 59.9323 187.267 60.1252C187.007 60.3181 186.781 60.4904 186.549 60.6488C186.31 60.815 186.088 61.0042 185.884 61.2138C185.672 61.4096 185.497 61.6429 185.365 61.9027H188.597V62.8879H188.577ZM191.856 62.0198C191.328 61.2719 191.044 60.3695 191.044 59.4432C191.044 58.5168 191.328 57.6145 191.856 56.8665C192.098 56.5619 192.403 56.3166 192.748 56.1482C193.093 55.9798 193.469 55.8925 193.851 55.8925C194.232 55.8925 194.609 55.9798 194.953 56.1482C195.298 56.3166 195.603 56.5619 195.846 56.8665C196.373 57.6145 196.658 58.5168 196.658 59.4432C196.658 60.3695 196.373 61.2719 195.846 62.0198C195.603 62.3245 195.298 62.5697 194.953 62.7381C194.609 62.9065 194.232 62.9938 193.851 62.9938C193.469 62.9938 193.093 62.9065 192.748 62.7381C192.403 62.5697 192.098 62.3245 191.856 62.0198ZM195.088 61.3309C195.422 60.766 195.599 60.1162 195.599 59.4535C195.599 58.7908 195.422 58.141 195.088 57.5761C194.95 57.3658 194.764 57.1937 194.548 57.0747C194.331 56.9557 194.089 56.8935 193.844 56.8935C193.599 56.8935 193.357 56.9557 193.14 57.0747C192.924 57.1937 192.738 57.3658 192.6 57.5761C192.266 58.141 192.089 58.7908 192.089 59.4535C192.089 60.1162 192.266 60.766 192.6 61.3309C192.738 61.5412 192.924 61.7133 193.14 61.8323C193.357 61.9513 193.599 62.0136 193.844 62.0136C194.089 62.0136 194.331 61.9513 194.548 61.8323C194.764 61.7133 194.95 61.5412 195.088 61.3309ZM199.922 62.0198C199.395 61.2719 199.111 60.3695 199.111 59.4432C199.111 58.5168 199.395 57.6145 199.922 56.8665C200.166 56.563 200.471 56.3187 200.816 56.151C201.16 55.9834 201.537 55.8964 201.917 55.8964C202.298 55.8964 202.675 55.9834 203.019 56.151C203.364 56.3187 203.669 56.563 203.913 56.8665C204.44 57.6145 204.724 58.5168 204.724 59.4432C204.724 60.3695 204.44 61.2719 203.913 62.0198C203.669 62.3234 203.364 62.5677 203.019 62.7353C202.675 62.903 202.298 62.9899 201.917 62.9899C201.537 62.9899 201.16 62.903 200.816 62.7353C200.471 62.5677 200.166 62.3234 199.922 62.0198ZM203.154 61.3309C203.493 60.7677 203.673 60.1172 203.673 59.4535C203.673 58.7898 203.493 58.1393 203.154 57.5761C203.017 57.3658 202.833 57.1936 202.616 57.0745C202.4 56.9554 202.159 56.8931 201.914 56.8931C201.669 56.8931 201.428 56.9554 201.212 57.0745C200.996 57.1936 200.811 57.3658 200.674 57.5761C200.335 58.1393 200.155 58.7898 200.155 59.4535C200.155 60.1172 200.335 60.7677 200.674 61.3309C200.811 61.5412 200.996 61.7134 201.212 61.8325C201.428 61.9516 201.669 62.0139 201.914 62.0139C202.159 62.0139 202.4 61.9516 202.616 61.8325C202.833 61.7134 203.017 61.5412 203.154 61.3309ZM210.403 59.953C210.15 59.7068 209.813 59.5733 209.466 59.581C209.116 59.5715 208.777 59.7051 208.521 59.953C208.401 60.0576 208.304 60.1883 208.237 60.3359C208.17 60.4834 208.136 60.6444 208.136 60.8073C208.136 60.9712 208.17 61.1332 208.237 61.2819C208.303 61.4306 208.4 61.5625 208.521 61.6685C208.777 61.9163 209.116 62.05 209.466 62.0405C209.813 62.0482 210.15 61.9147 210.403 61.6685C210.525 61.5629 210.623 61.4312 210.691 61.2825C210.758 61.1338 210.794 60.9717 210.796 60.8073C210.794 60.6439 210.758 60.4828 210.691 60.3352C210.623 60.1877 210.525 60.0572 210.403 59.953ZM210.217 57.0594C210.013 56.8638 209.743 56.7598 209.466 56.77C209.328 56.7642 209.191 56.7868 209.062 56.8365C208.933 56.8862 208.815 56.9619 208.714 57.0594C208.62 57.1459 208.545 57.252 208.493 57.3707C208.442 57.4894 208.415 57.6181 208.415 57.7483C208.414 57.8787 208.441 58.0077 208.492 58.1265C208.544 58.2454 208.619 58.3514 208.714 58.4373C208.815 58.5335 208.934 58.608 209.063 58.6565C209.192 58.705 209.329 58.7265 209.466 58.7198C209.603 58.7261 209.74 58.7045 209.868 58.656C209.997 58.6075 210.116 58.5332 210.217 58.4373C210.31 58.3499 210.383 58.2435 210.434 58.1249C210.484 58.0062 210.51 57.878 210.51 57.7483C210.509 57.6189 210.483 57.4909 210.433 57.3723C210.382 57.2538 210.309 57.1473 210.217 57.0594ZM208.069 56.4669C208.453 56.0909 208.964 55.8877 209.492 55.902C209.752 55.8945 210.01 55.9406 210.252 56.0376C210.494 56.1346 210.715 56.2805 210.902 56.4669C211.084 56.6292 211.229 56.8302 211.329 57.0561C211.429 57.2819 211.481 57.5275 211.481 57.7759C211.48 57.9364 211.46 58.0961 211.421 58.2513C211.383 58.385 211.327 58.5126 211.255 58.6302C211.193 58.7214 211.126 58.8088 211.055 58.892C211.005 58.9532 210.947 59.0065 210.882 59.0505L210.822 59.1056L210.922 59.1814C211.003 59.2481 211.081 59.3194 211.155 59.3949C211.244 59.5124 211.324 59.6368 211.394 59.767C211.485 59.9168 211.561 60.0762 211.62 60.2424C211.686 60.4324 211.72 60.6329 211.72 60.8349C211.722 61.1243 211.663 61.4106 211.548 61.6745C211.433 61.9384 211.265 62.1737 211.055 62.3643C210.612 62.7908 210.024 63.0186 209.419 62.9982C209.122 63.0091 208.825 62.9587 208.546 62.8499C208.268 62.7411 208.013 62.576 207.796 62.3643C207.585 62.1746 207.416 61.9395 207.301 61.6754C207.187 61.4113 207.129 61.1245 207.131 60.8349C207.133 60.5161 207.213 60.2031 207.364 59.9254C207.486 59.6886 207.649 59.4762 207.843 59.2985L208.082 59.1194C208.016 59.0747 207.954 59.0239 207.896 58.9678C207.778 58.8354 207.677 58.6871 207.597 58.5269C207.477 58.301 207.413 58.0476 207.411 57.7897C207.411 57.5412 207.462 57.2957 207.562 57.0698C207.662 56.844 207.808 56.643 207.989 56.4807L208.069 56.4669ZM216.508 62.8879V55.9984H220.784V57.0112H217.552V62.9155L216.508 62.8879ZM222.587 61.9027C222.645 61.9605 222.692 62.0299 222.724 62.1069C222.756 62.1838 222.773 62.2667 222.773 62.3505C222.769 62.5187 222.703 62.6789 222.588 62.7972C222.472 62.9155 222.317 62.9826 222.154 62.9844C222.073 62.9848 221.992 62.9686 221.917 62.9367C221.842 62.9048 221.773 62.8578 221.715 62.7984C221.658 62.7398 221.613 62.67 221.582 62.5932C221.551 62.5163 221.536 62.4338 221.536 62.3505C221.535 62.2672 221.55 62.1845 221.581 62.1075C221.612 62.0305 221.658 61.9608 221.715 61.9027C221.772 61.8421 221.84 61.7939 221.914 61.7609C221.989 61.728 222.07 61.711 222.151 61.711C222.232 61.711 222.313 61.728 222.388 61.7609C222.463 61.7939 222.53 61.8421 222.587 61.9027Z" fill="white"/>
<path fill-rule="evenodd" clip-rule="evenodd" d="M0 43.6932H7.15328V27.9155L0 24.3867V43.6932Z" fill="white"/>
<path fill-rule="evenodd" clip-rule="evenodd" d="M10.7247 43.6934H17.3723V28.9938V27.831V21.6077L0 12.1934V19.5795L10.7247 25.3932V43.6934Z" fill="white"/>
<path fill-rule="evenodd" clip-rule="evenodd" d="M20.9435 43.6935H27.591V29.0995V27.945V15.4368L10.2188 6.09668V13.4232L20.9435 19.1952V43.6935Z" fill="white"/>
<path fill-rule="evenodd" clip-rule="evenodd" d="M32.1817 43.6935H38.8332V29.153V28.0028V9.31249L21.4609 0V7.30622L32.1817 13.0571V43.6935Z" fill="white"/>
</g>
</svg>
