<svg width="250" height="57" viewBox="0 0 250 57" fill="none" xmlns="http://www.w3.org/2000/svg">
<g clip-path="url(#clip0_5464_52668)">
<path d="M63.8687 9H57.4178V22.2409H57.3293L52.466 9H45.5725L51.6279 22.992L45 40H52.1591L57.3293 26.7591H57.4178V40H63.8687V26.7591H63.9572L69.1274 40H76.2865L69.6585 22.992L75.714 9H68.8205L63.9572 22.2409H63.8687V9ZM93.4377 9H77.703V40H90.3451L95.0253 35.4819V26.0494L90.3451 21.5313H84.1539V14.8428H93.4377V9ZM84.1539 27.38H88.5745V34.1454H84.1539V27.38ZM98.6492 9V40H104.268L109.349 24.0328H109.438V40H115.889V9H110.306L105.224 24.9672H105.135V9H98.6492ZM146.514 13.5181L141.834 9H129.9V40H136.351V29.6332H141.834L146.514 25.1209V13.5181ZM140.063 14.8428V23.7903H136.351V14.8428H140.063ZM166.227 13.5181L161.541 9H153.591L148.905 13.5181V35.4819L153.591 40H161.541L166.227 35.4819V13.5181ZM159.776 14.8428V34.1454H155.356V14.8428H159.776ZM187.268 13.5181L182.581 9H174.637L169.916 13.5181V35.4819L174.637 40H182.593L187.279 35.4819V26.7591H180.811V34.1454H176.408V14.8428H180.823V20.8689H187.268V13.5181ZM208.214 13.5181L203.557 9H195.578L190.891 13.5181V35.4819L195.578 40H203.557L208.243 35.4819V26.7591H201.787V34.1454H197.366V14.8428H201.787V20.8689H208.237V13.5181H208.214ZM211.82 9V40H217.433L222.52 24.0328H222.603V40H229.06V9H223.447L218.365 24.9672H218.312V9H211.82ZM232.772 9V40H238.379L243.461 24.0328H243.549V40H250V9H244.387L239.306 24.9672H239.217V9H232.772Z" fill="#504F54"/>
<path d="M97.5712 52.4728C97.2047 52.8274 96.9751 53.2959 96.9214 53.7983C96.8677 54.3006 96.9934 54.8056 97.2769 55.2272C97.5604 55.6487 97.9842 55.9607 98.476 56.1097C98.9677 56.2588 99.497 56.2357 99.9733 56.0444C100.45 55.8532 100.844 55.5056 101.088 55.0611C101.332 54.6165 101.412 54.1025 101.313 53.6068C101.214 53.1111 100.943 52.6645 100.546 52.3431C100.149 52.0217 99.6505 51.8455 99.1359 51.8446C98.8451 51.8385 98.5562 51.8911 98.287 51.9991C98.0179 52.1072 97.7742 52.2684 97.5712 52.4728ZM96.9015 56.1254C96.6158 55.8475 96.3891 55.5168 96.2344 55.1524C96.0797 54.788 96 54.3972 96 54.0025C96 53.6077 96.0797 53.2169 96.2344 52.8525C96.3891 52.4881 96.6158 52.1574 96.9015 51.8795C97.5059 51.3225 98.3038 51.0125 99.1329 51.0125C99.962 51.0125 100.76 51.3225 101.364 51.8795C101.65 52.1574 101.877 52.4881 102.031 52.8525C102.186 53.2169 102.266 53.6077 102.266 54.0025C102.266 54.3972 102.186 54.788 102.031 55.1524C101.877 55.5168 101.65 55.8475 101.364 56.1254C100.76 56.6824 99.962 56.9924 99.1329 56.9924C98.3038 56.9924 97.5059 56.6824 96.9015 56.1254ZM107.57 51.0129C107.862 51.0124 108.153 51.0515 108.435 51.1292C108.676 51.1903 108.908 51.2842 109.122 51.4084C109.3 51.5247 109.46 51.6294 109.597 51.7399C109.702 51.8258 109.801 51.9191 109.893 52.0191L109.982 52.1354L109.389 52.717C109.368 52.686 109.344 52.6568 109.318 52.6298C109.254 52.5516 109.183 52.4796 109.105 52.4146C108.993 52.3121 108.87 52.2224 108.737 52.147C108.578 52.061 108.409 51.9927 108.233 51.9435C108.019 51.8773 107.795 51.8439 107.57 51.8446C107.28 51.8431 106.994 51.8978 106.726 52.0057C106.459 52.1136 106.216 52.2725 106.011 52.4732C105.807 52.6739 105.645 52.9124 105.535 53.1749C105.425 53.4374 105.369 53.7186 105.371 54.0025C105.367 54.2872 105.421 54.5698 105.53 54.8337C105.639 55.0976 105.801 55.3374 106.006 55.539C106.21 55.7406 106.454 55.9 106.723 56.0077C106.992 56.1154 107.279 56.1693 107.57 56.1661C107.794 56.1687 108.018 56.1373 108.233 56.0731C108.42 56.0223 108.598 55.9439 108.761 55.8404C108.889 55.7616 109.012 55.6741 109.128 55.5787C109.213 55.5089 109.292 55.4331 109.365 55.3518L109.431 55.2471L110.023 55.8288L109.923 55.9567C109.875 56.011 109.774 56.1041 109.62 56.2359C109.465 56.3658 109.298 56.4825 109.122 56.5849C108.907 56.7073 108.676 56.8011 108.435 56.8641C107.897 57.0152 107.328 57.026 106.784 56.8954C106.241 56.7649 105.741 56.4975 105.335 56.1196C105.05 55.8417 104.823 55.511 104.668 55.1466C104.513 54.7822 104.434 54.3914 104.434 53.9966C104.434 53.6019 104.513 53.2111 104.668 52.8467C104.823 52.4823 105.05 52.1516 105.335 51.8737C105.628 51.5897 105.977 51.3665 106.36 51.2176C106.742 51.0687 107.152 50.9971 107.564 51.007L107.57 51.0129ZM117.177 51.0943V56.9106H116.246V54.3747H113.324V56.9106H112.394V51.0943H113.324V53.5488H116.246V51.0943H117.177ZM121.278 52.4728C120.912 52.8274 120.682 53.2959 120.628 53.7983C120.575 54.3006 120.7 54.8056 120.984 55.2272C121.267 55.6487 121.691 55.9607 122.183 56.1097C122.675 56.2588 123.204 56.2357 123.68 56.0444C124.157 55.8532 124.551 55.5056 124.795 55.0611C125.039 54.6165 125.119 54.1025 125.02 53.6068C124.921 53.1111 124.65 52.6645 124.253 52.3431C123.856 52.0217 123.358 51.8455 122.843 51.8446C122.552 51.8385 122.263 51.8911 121.994 51.9991C121.725 52.1072 121.481 52.2684 121.278 52.4728ZM120.608 56.1254C120.323 55.8475 120.096 55.5168 119.941 55.1524C119.787 54.788 119.707 54.3972 119.707 54.0025C119.707 53.6077 119.787 53.2169 119.941 52.8525C120.096 52.4881 120.323 52.1574 120.608 51.8795C121.213 51.3225 122.011 51.0125 122.84 51.0125C123.669 51.0125 124.467 51.3225 125.071 51.8795C125.357 52.1574 125.584 52.4881 125.738 52.8525C125.893 53.2169 125.973 53.6077 125.973 54.0025C125.973 54.3972 125.893 54.788 125.738 55.1524C125.584 55.5168 125.357 55.8475 125.071 56.1254C124.467 56.6824 123.669 56.9924 122.84 56.9924C122.011 56.9924 121.213 56.6824 120.608 56.1254ZM131.045 56.9106H128.533V51.0943H130.963C131.417 51.0898 131.856 51.2563 132.189 51.5596C132.346 51.6926 132.473 51.8567 132.561 52.0411C132.649 52.2256 132.696 52.4262 132.699 52.6298C132.699 52.8531 132.649 53.0737 132.551 53.2754C132.482 53.4264 132.383 53.5628 132.26 53.6767L132.106 53.7989L132.201 53.8512C132.237 53.8512 132.314 53.9327 132.415 54.0199C132.517 54.1011 132.609 54.195 132.687 54.2991C132.773 54.424 132.842 54.5588 132.895 54.7004C132.961 54.8632 132.995 55.0369 132.995 55.2122C132.996 55.4384 132.947 55.662 132.853 55.8685C132.759 56.075 132.622 56.2596 132.45 56.4104C132.081 56.7473 131.591 56.9271 131.087 56.9106H131.045ZM129.439 56.1196H131.045C131.174 56.1228 131.302 56.1003 131.422 56.0535C131.542 56.0068 131.651 55.9368 131.742 55.8476C131.833 55.7585 131.905 55.6521 131.954 55.5349C132.002 55.4177 132.026 55.2921 132.023 55.1657C132.026 55.0393 132.002 54.9137 131.954 54.7965C131.905 54.6793 131.833 54.5729 131.742 54.4838C131.651 54.3947 131.542 54.3246 131.422 54.2779C131.302 54.2311 131.174 54.2087 131.045 54.2118H129.439V56.1196ZM130.921 51.8853H129.439V53.4674H130.963C131.176 53.4674 131.381 53.384 131.532 53.2357C131.684 53.0873 131.769 52.8861 131.769 52.6763C131.769 52.4665 131.684 52.2653 131.532 52.117C131.381 51.9687 131.176 51.8853 130.963 51.8853H130.921ZM134.637 56.9106L137.091 51.0943H138.075L140.528 56.9106H139.556L138.916 55.3751H136.297L135.656 56.9106H134.637ZM137.559 52.1354L136.587 54.5434H138.531L137.559 52.1354ZM147.463 51.0943V56.9106H146.532V54.3747H143.61V56.9106H142.68V51.0943H143.61V53.5488H146.532V51.0943H147.463ZM156.252 56.9106H153.715V51.0943H156.127C156.582 51.0898 157.021 51.2563 157.354 51.5596C157.511 51.6929 157.636 51.8572 157.723 52.0417C157.81 52.2261 157.856 52.4266 157.858 52.6298C157.86 52.8527 157.812 53.0733 157.716 53.2754C157.647 53.4264 157.548 53.5628 157.425 53.6767L157.271 53.7989L157.36 53.8512L157.58 54.0199C157.682 54.1011 157.774 54.195 157.852 54.2991C157.936 54.4253 158.005 54.5598 158.06 54.7004C158.126 54.8632 158.16 55.0369 158.16 55.2122C158.161 55.439 158.112 55.6633 158.017 55.8699C157.922 56.0766 157.783 56.2609 157.609 56.4104C157.428 56.5776 157.214 56.7078 156.982 56.7937C156.749 56.8796 156.501 56.9193 156.252 56.9106ZM154.67 56.1196H156.276C156.404 56.1219 156.532 56.0989 156.651 56.0519C156.771 56.0048 156.879 55.9348 156.97 55.8458C157.062 55.7568 157.134 55.6508 157.182 55.534C157.231 55.4171 157.255 55.2919 157.254 55.1657C157.256 55.0393 157.232 54.9137 157.184 54.7965C157.136 54.6793 157.064 54.5729 156.972 54.4838C156.881 54.3947 156.772 54.3246 156.652 54.2779C156.533 54.2311 156.404 54.2087 156.276 54.2118H154.67V56.1196ZM156.151 51.8853H154.67V53.4674H156.151C156.365 53.4674 156.57 53.384 156.721 53.2357C156.872 53.0873 156.957 52.8861 156.957 52.6763C156.957 52.4665 156.872 52.2653 156.721 52.117C156.57 51.9687 156.365 51.8853 156.151 51.8853ZM167.525 56.9106H163.589C163.585 56.5783 163.639 56.2476 163.749 55.9335C163.848 55.6648 163.997 55.4164 164.188 55.2006C164.368 55.0044 164.566 54.8252 164.781 54.6655C164.994 54.5027 165.201 54.3572 165.415 54.2235C165.628 54.0897 165.824 53.9559 166.007 53.828C166.179 53.7016 166.325 53.546 166.44 53.3685C166.55 53.194 166.608 52.9923 166.606 52.7868C166.613 52.6578 166.591 52.5288 166.543 52.4085C166.495 52.2882 166.422 52.1793 166.327 52.0889C166.109 51.9096 165.829 51.8181 165.545 51.833C165.389 51.8322 165.233 51.8618 165.089 51.9202C164.965 51.9677 164.852 52.0389 164.757 52.1296C164.68 52.211 164.615 52.2866 164.549 52.3681C164.502 52.4355 164.463 52.5076 164.431 52.5833L164.401 52.6647L163.643 52.3332C163.654 52.2833 163.67 52.2346 163.69 52.1878C163.737 52.0762 163.795 51.9691 163.862 51.8679C163.956 51.7217 164.067 51.587 164.194 51.4665C164.356 51.328 164.543 51.2197 164.745 51.1466C165 51.0484 165.271 50.999 165.545 51.0012C166.074 50.9829 166.589 51.1688 166.979 51.5189C167.158 51.6797 167.3 51.8758 167.396 52.0944C167.492 52.3129 167.54 52.5489 167.536 52.7868C167.537 53.042 167.48 53.2942 167.371 53.5255C167.271 53.7447 167.128 53.9424 166.95 54.1071C166.778 54.2584 166.588 54.4154 166.357 54.5783C166.126 54.7411 165.924 54.8865 165.717 55.0203C165.505 55.1606 165.306 55.3203 165.124 55.4972C164.936 55.6626 164.78 55.8595 164.662 56.0789H167.542V56.9106H167.525ZM170.447 56.1778C169.976 55.5463 169.723 54.7845 169.723 54.0025C169.723 53.2204 169.976 52.4586 170.447 51.8272C170.663 51.57 170.934 51.3629 171.242 51.2208C171.549 51.0786 171.885 51.0049 172.225 51.0049C172.564 51.0049 172.9 51.0786 173.207 51.2208C173.515 51.3629 173.786 51.57 174.003 51.8272C174.473 52.4586 174.726 53.2204 174.726 54.0025C174.726 54.7845 174.473 55.5463 174.003 56.1778C173.786 56.4349 173.515 56.642 173.207 56.7841C172.9 56.9263 172.564 57 172.225 57C171.885 57 171.549 56.9263 171.242 56.7841C170.934 56.642 170.663 56.4349 170.447 56.1778ZM173.327 55.5961C173.625 55.1193 173.783 54.5707 173.783 54.0112C173.783 53.4517 173.625 52.9031 173.327 52.4262C173.204 52.2487 173.039 52.1034 172.846 52.0029C172.653 51.9024 172.437 51.8499 172.219 51.8499C172 51.8499 171.785 51.9024 171.591 52.0029C171.398 52.1034 171.233 52.2487 171.11 52.4262C170.812 52.9031 170.654 53.4517 170.654 54.0112C170.654 54.5707 170.812 55.1193 171.11 55.5961C171.233 55.7737 171.398 55.919 171.591 56.0195C171.785 56.1199 172 56.1724 172.219 56.1724C172.437 56.1724 172.653 56.1199 172.846 56.0195C173.039 55.919 173.204 55.7737 173.327 55.5961ZM177.636 56.1778C177.166 55.5463 176.912 54.7845 176.912 54.0025C176.912 53.2204 177.166 52.4586 177.636 51.8272C177.853 51.5709 178.124 51.3647 178.432 51.2231C178.739 51.0816 179.074 51.0082 179.414 51.0082C179.753 51.0082 180.088 51.0816 180.396 51.2231C180.703 51.3647 180.975 51.5709 181.192 51.8272C181.662 52.4586 181.915 53.2204 181.915 54.0025C181.915 54.7845 181.662 55.5463 181.192 56.1778C180.975 56.434 180.703 56.6402 180.396 56.7818C180.088 56.9233 179.753 56.9967 179.414 56.9967C179.074 56.9967 178.739 56.9233 178.432 56.7818C178.124 56.6402 177.853 56.434 177.636 56.1778ZM180.516 55.5961C180.818 55.1206 180.978 54.5715 180.978 54.0112C180.978 53.4508 180.818 52.9017 180.516 52.4262C180.394 52.2487 180.229 52.1033 180.037 52.0027C179.844 51.9022 179.629 51.8497 179.411 51.8497C179.192 51.8497 178.978 51.9022 178.785 52.0027C178.592 52.1033 178.428 52.2487 178.305 52.4262C178.003 52.9017 177.843 53.4508 177.843 54.0112C177.843 54.5715 178.003 55.1206 178.305 55.5961C178.428 55.7737 178.592 55.9191 178.785 56.0196C178.978 56.1201 179.192 56.1727 179.411 56.1727C179.629 56.1727 179.844 56.1201 180.037 56.0196C180.229 55.9191 180.394 55.7737 180.516 55.5961ZM186.976 54.4329C186.75 54.225 186.45 54.1123 186.141 54.1188C185.829 54.1108 185.526 54.2236 185.299 54.4329C185.192 54.5212 185.105 54.6315 185.046 54.7561C184.986 54.8807 184.955 55.0165 184.955 55.1541C184.955 55.2925 184.986 55.4292 185.046 55.5548C185.105 55.6803 185.191 55.7917 185.299 55.8811C185.526 56.0904 185.829 56.2032 186.141 56.1952C186.45 56.2017 186.75 56.0889 186.976 55.8811C187.085 55.792 187.172 55.6808 187.232 55.5553C187.293 55.4297 187.325 55.2929 187.326 55.1541C187.325 55.0161 187.293 54.8801 187.232 54.7556C187.172 54.631 187.084 54.5209 186.976 54.4329ZM186.81 51.99C186.629 51.8249 186.388 51.7371 186.141 51.7457C186.018 51.7408 185.896 51.7599 185.781 51.8018C185.666 51.8438 185.56 51.9077 185.471 51.99C185.387 52.063 185.32 52.1526 185.274 52.2528C185.228 52.3531 185.204 52.4617 185.204 52.5716C185.204 52.6817 185.227 52.7906 185.273 52.8909C185.319 52.9913 185.387 53.0807 185.471 53.1533C185.561 53.2345 185.666 53.2974 185.781 53.3384C185.896 53.3793 186.018 53.3974 186.141 53.3917C186.263 53.3971 186.385 53.3788 186.5 53.3379C186.615 53.297 186.72 53.2342 186.81 53.1533C186.893 53.0795 186.958 52.9897 187.003 52.8895C187.048 52.7893 187.071 52.6811 187.071 52.5716C187.071 52.4623 187.047 52.3543 187.002 52.2542C186.957 52.1541 186.892 52.0642 186.81 51.99ZM184.896 51.4898C185.238 51.1724 185.694 51.0009 186.164 51.0129C186.395 51.0065 186.626 51.0455 186.841 51.1274C187.057 51.2092 187.254 51.3324 187.421 51.4898C187.583 51.6268 187.712 51.7965 187.801 51.9872C187.89 52.1779 187.936 52.3852 187.936 52.5949C187.936 52.7304 187.918 52.8652 187.883 52.9962C187.849 53.1091 187.799 53.2168 187.735 53.3161C187.68 53.3931 187.621 53.4669 187.557 53.5371C187.513 53.5888 187.461 53.6338 187.403 53.6709L187.35 53.7175L187.439 53.7814C187.511 53.8378 187.58 53.898 187.646 53.9617C187.724 54.0535 187.795 54.1507 187.859 54.2526C187.941 54.3791 188.008 54.5136 188.061 54.6539C188.12 54.8144 188.15 54.9836 188.15 55.1541C188.151 55.3984 188.099 55.6402 187.997 55.863C187.894 56.0858 187.744 56.2844 187.557 56.4453C187.162 56.8053 186.638 56.9977 186.099 56.9804C185.834 56.9896 185.57 56.9471 185.321 56.8552C185.073 56.7634 184.846 56.624 184.653 56.4453C184.465 56.2851 184.314 56.0866 184.212 55.8637C184.11 55.6407 184.058 55.3986 184.06 55.1541C184.062 54.885 184.133 54.6208 184.268 54.3863C184.377 54.1863 184.521 54.0071 184.694 53.857L184.908 53.7058C184.849 53.6681 184.793 53.6253 184.742 53.5779C184.636 53.4661 184.547 53.3409 184.475 53.2056C184.368 53.0149 184.311 52.801 184.309 52.5833C184.309 52.3735 184.355 52.1663 184.444 51.9756C184.533 51.7849 184.663 51.6152 184.825 51.4782L184.896 51.4898ZM192.417 56.9106V51.0943H196.228V51.926H193.348V56.9106H192.417ZM197.834 56.0789C197.886 56.1276 197.928 56.1862 197.956 56.2512C197.985 56.3162 198 56.3862 198 56.4569C197.997 56.5989 197.938 56.7341 197.835 56.834C197.732 56.9339 197.594 56.9906 197.449 56.992C197.376 56.9924 197.304 56.9787 197.237 56.9518C197.17 56.9248 197.109 56.8851 197.058 56.835C197.007 56.7856 196.966 56.7267 196.939 56.6618C196.911 56.5969 196.897 56.5272 196.898 56.4569C196.897 56.3866 196.91 56.3167 196.938 56.2517C196.965 56.1867 197.006 56.1279 197.058 56.0789C197.108 56.0277 197.168 55.987 197.235 55.9592C197.302 55.9314 197.373 55.917 197.446 55.917C197.518 55.917 197.59 55.9314 197.657 55.9592C197.723 55.987 197.784 56.0277 197.834 56.0789Z" fill="#504F54"/>
<path fill-rule="evenodd" clip-rule="evenodd" d="M0 39H6V25.1072L0 22V39Z" fill="#504F54"/>
<path fill-rule="evenodd" clip-rule="evenodd" d="M9.87758 39H16V25.9337V24.9002V19.3683L0 11V17.5654L9.87758 22.7332V39Z" fill="#504F54"/>
<path fill-rule="evenodd" clip-rule="evenodd" d="M19.8776 40H26V26.8022V25.7582V14.4466L10 6V12.6256L19.8776 17.8454V40Z" fill="#504F54"/>
<path fill-rule="evenodd" clip-rule="evenodd" d="M28.8739 40H35V26.6886V25.6357V8.52528L19 0V6.6886L28.8739 11.9533V40Z" fill="#504F54"/>
</g>
<defs>
<clipPath id="clip0_5464_52668">
<rect width="250" height="57" fill="white"/>
</clipPath>
</defs>
</svg>
