<svg width="14" height="14" viewBox="0 0 14 14" fill="none" xmlns="http://www.w3.org/2000/svg">
<path d="M6.99805 1.02148C9.81267 1.02148 12.1025 3.28073 12.1025 6.07715C12.1024 7.81621 11.0885 9.53282 10.0137 10.7822C9.4697 11.4145 8.89208 11.9485 8.38281 12.3281C8.12871 12.5175 7.88453 12.6741 7.66406 12.7852C7.4573 12.8893 7.22044 12.9795 6.99805 12.9795C6.77578 12.9794 6.53965 12.8892 6.33301 12.7852C6.11255 12.6741 5.86836 12.5175 5.61426 12.3281C5.10503 11.9485 4.52733 11.4145 3.9834 10.7822C2.90857 9.53282 1.8947 7.81623 1.89453 6.07715C1.89453 3.28084 4.18357 1.02166 6.99805 1.02148ZM6.99805 4.08398C6.03171 4.08418 5.24805 4.86761 5.24805 5.83398C5.24815 6.80028 6.03178 7.58379 6.99805 7.58398C7.96448 7.58398 8.74795 6.8004 8.74805 5.83398C8.74805 4.86749 7.96455 4.08398 6.99805 4.08398Z" fill="#333333"/>
</svg>
