<svg width="30" height="30" viewBox="0 0 30 30" fill="none" xmlns="http://www.w3.org/2000/svg">
<path d="M15 2.1875C21.0312 2.1875 25.9373 7.02834 25.9375 13.0205C25.9375 16.7473 23.7643 20.426 21.4609 23.1035C20.2953 24.4584 19.058 25.6025 17.9668 26.416C17.4221 26.8221 16.8984 27.1575 16.4258 27.3955C15.9827 27.6186 15.4766 27.8125 15 27.8125C14.5234 27.8125 14.0173 27.6186 13.5742 27.3955C13.1016 27.1575 12.5779 26.8221 12.0332 26.416C10.942 25.6025 9.70465 24.4584 8.53906 23.1035C6.23572 20.426 4.0625 16.7473 4.0625 13.0205C4.06268 7.02834 8.96877 2.1875 15 2.1875ZM15 8.75C12.9291 8.75004 11.2502 10.4291 11.25 12.5C11.25 14.571 12.929 16.25 15 16.25C17.0711 16.25 18.75 14.5711 18.75 12.5C18.7498 10.4291 17.071 8.75 15 8.75Z" fill="#FC3F1D"/>
</svg>
