<svg width="16" height="16" viewBox="0 0 16 16" fill="none" xmlns="http://www.w3.org/2000/svg">
<path d="M8.00098 1.16669C11.2175 1.16669 13.8347 3.74833 13.835 6.94403C13.835 8.93166 12.6757 10.894 11.4473 12.322C10.8256 13.0446 10.165 13.6547 9.58301 14.0886C9.29258 14.305 9.01369 14.4841 8.76172 14.611C8.52542 14.73 8.25514 14.8337 8.00098 14.8337C7.747 14.8336 7.47735 14.7299 7.24121 14.611C6.98915 14.4841 6.70949 14.3052 6.41895 14.0886C5.83697 13.6547 5.17729 13.0445 4.55566 12.322C3.32719 10.894 2.16797 8.93172 2.16797 6.94403C2.16821 3.74844 4.78456 1.16686 8.00098 1.16669ZM8.00098 4.66669C6.89663 4.66688 6.00106 5.56231 6.00098 6.66669C6.00098 7.77113 6.89658 8.66649 8.00098 8.66669C9.10555 8.66669 10.001 7.77126 10.001 6.66669C10.0009 5.56219 9.10549 4.66669 8.00098 4.66669Z" fill="#333333"/>
</svg>
