<svg width="40" height="40" viewBox="0 0 40 40" fill="none" xmlns="http://www.w3.org/2000/svg">
<rect width="40" height="40" rx="20" fill="white"/>
<path d="M20.2533 31.5998C17.9634 31.5998 16.8993 31.264 15.0495 29.9211C13.8795 31.4319 10.1745 32.6126 10.0129 30.5925C10.0129 29.0761 9.67866 27.7947 9.2998 26.3958C8.84851 24.6723 8.33594 22.753 8.33594 19.972C8.33594 13.3299 13.7625 8.33301 20.192 8.33301C26.627 8.33301 31.6692 13.5761 31.6692 20.0335C31.6796 23.0868 30.4834 26.0195 28.3431 28.188C26.2028 30.3564 23.2934 31.5835 20.2533 31.5998ZM20.348 14.0742C17.2168 13.9119 14.7765 16.0886 14.2361 19.5019C13.7904 22.3277 14.5815 25.7691 15.2557 25.9481C15.5788 26.0265 16.3923 25.3662 16.8993 24.857C17.7376 25.4387 18.7139 25.788 19.7296 25.8698C21.2892 25.9451 22.816 25.4029 23.9818 24.3597C25.1476 23.3165 25.8593 21.8556 25.964 20.2909C26.025 18.723 25.4707 17.1938 24.4204 16.0322C23.3701 14.8706 21.9077 14.1695 20.348 14.0797V14.0742Z" fill="#333333"/>
</svg>
