<svg width="40" height="40" viewBox="0 0 40 40" fill="none" xmlns="http://www.w3.org/2000/svg">
<rect width="40" height="40" rx="20" fill="url(#paint0_linear_5267_105788)"/>
<path d="M20.2513 31.6002C17.9615 31.6002 16.8973 31.2645 15.0476 29.9215C13.8776 31.4324 10.1726 32.6131 10.011 30.593C10.011 29.0766 9.67671 27.7952 9.29785 26.3963C8.84656 24.6728 8.33398 22.7535 8.33398 19.9725C8.33398 13.3304 13.7606 8.3335 20.19 8.3335C26.6251 8.3335 31.6672 13.5766 31.6672 20.034C31.6776 23.0873 30.4814 26.02 28.3411 28.1885C26.2009 30.3569 23.2914 31.584 20.2513 31.6002ZM20.346 14.0746C17.2149 13.9124 14.7746 16.0891 14.2342 19.5024C13.7884 22.3282 14.5796 25.7696 15.2537 25.9486C15.5769 26.027 16.3903 25.3667 16.8973 24.8575C17.7357 25.4391 18.7119 25.7885 19.7276 25.8703C21.2872 25.9456 22.814 25.4034 23.9798 24.3602C25.1456 23.317 25.8574 21.8561 25.9621 20.2914C26.023 18.7235 25.4687 17.1942 24.4184 16.0326C23.3681 14.871 21.9058 14.17 20.346 14.0802V14.0746Z" fill="white"/>
<defs>
<linearGradient id="paint0_linear_5267_105788" x1="40.2779" y1="20.5411" x2="5.41667" y2="39.1667" gradientUnits="userSpaceOnUse">
<stop stop-color="#9C44DB"/>
<stop offset="0.468164" stop-color="#3A47F8"/>
<stop offset="1" stop-color="#4BC2FD"/>
</linearGradient>
</defs>
</svg>
