<svg width="20" height="20" viewBox="0 0 20 20" fill="none" xmlns="http://www.w3.org/2000/svg">
<path d="M10.1934 18.9486C8.42691 18.9486 7.606 18.6896 6.17907 17.6536C5.27649 18.8191 2.41833 19.7299 2.29369 18.1716C2.29369 17.0018 2.03581 16.0133 1.74355 14.9342C1.39541 13.6046 1 12.124 1 9.97863C1 4.85477 5.18624 1 10.1461 1C15.1103 1 18.9999 5.0447 18.9999 10.0261C19.008 12.3815 18.0852 14.6439 16.4341 16.3167C14.783 17.9895 12.5386 18.9361 10.1934 18.9486ZM10.2664 5.42888C7.85098 5.3037 5.96847 6.98288 5.55156 9.61604C5.20772 11.7959 5.81804 14.4507 6.33809 14.5888C6.58738 14.6493 7.21488 14.1399 7.606 13.7471C8.25273 14.1958 9.00584 14.4653 9.78937 14.5284C10.9925 14.5865 12.1703 14.1682 13.0696 13.3635C13.969 12.5587 14.518 11.4317 14.5988 10.2247C14.6458 9.01517 14.2182 7.83544 13.408 6.93935C12.5978 6.04326 11.4697 5.50242 10.2664 5.4332V5.42888Z" fill="#0026FF"/>
</svg>
