<svg width="24" height="24" viewBox="0 0 24 24" fill="none" xmlns="http://www.w3.org/2000/svg">
<path d="M3.27186 11.9773C5.11331 10.9567 7.16886 10.1049 9.08947 9.24873C12.3937 7.8464 15.711 6.46837 19.0618 5.18544C19.7138 4.96684 20.8851 4.75306 21 5.7252C20.9371 7.10125 20.6784 8.46924 20.5009 9.83723C20.0505 12.8456 19.5298 15.8436 19.0222 18.8421C18.8472 19.8408 17.6038 20.3578 16.8082 19.7187C14.8961 18.4191 12.9693 17.1322 11.0816 15.8025C10.4633 15.1703 11.0367 14.2624 11.5889 13.811C13.1638 12.2493 14.8339 10.9226 16.3265 9.28023C16.7291 8.30196 15.5395 9.12642 15.1471 9.37903C12.9911 10.874 10.8879 12.4602 8.61487 13.774C7.45378 14.4171 6.10052 13.8675 4.93996 13.5086C3.89937 13.0751 2.37453 12.6384 3.27176 11.9774L3.27186 11.9773Z" stroke="#333333" stroke-width="2"/>
</svg>
