<svg width="24" height="24" viewBox="0 0 24 24" fill="none" xmlns="http://www.w3.org/2000/svg">
<path d="M2 9.18684C2.00002 8.14048 2.33759 7.11873 2.96813 6.25655C3.59867 5.39437 4.49251 4.73232 5.5316 4.35783C6.57069 3.98335 7.70614 3.91405 8.78799 4.1591C9.86984 4.40414 10.8472 4.95199 11.591 5.7303C11.6434 5.78297 11.7067 5.82496 11.777 5.85366C11.8474 5.88237 11.9233 5.89719 12 5.89719C12.0767 5.89719 12.1525 5.88237 12.2229 5.85366C12.2932 5.82496 12.3566 5.78297 12.409 5.7303C13.1504 4.94693 14.128 4.39448 15.2116 4.14646C16.2952 3.89844 17.4334 3.96662 18.4748 4.34193C19.5162 4.71724 20.4113 5.38187 21.0411 6.24737C21.6708 7.11287 22.0052 8.13818 21.9999 9.18684C21.9999 11.3401 20.4999 12.948 18.9999 14.3585L13.508 19.3543C13.3216 19.5555 13.0919 19.7172 12.834 19.8285C12.5761 19.9398 12.296 19.9983 12.0123 20C11.7285 20.0017 11.4476 19.9465 11.1883 19.8383C10.9289 19.7301 10.697 19.5712 10.508 19.3722L4.99999 14.3585C3.5 12.948 2 11.3495 2 9.18684Z" stroke="#333333" stroke-width="2" stroke-linecap="round" stroke-linejoin="round"/>
</svg>
