<svg width="120" height="20" viewBox="0 0 120 20" fill="none" xmlns="http://www.w3.org/2000/svg">
<path d="M10.5978 1.03862C10.4855 0.811059 10.2538 0.666992 10 0.666992C9.74626 0.666992 9.5145 0.811059 9.40219 1.03862L6.67302 6.5686L0.570879 7.45474C0.319742 7.49121 0.111089 7.6671 0.0326579 7.90844C-0.0457731 8.14979 0.0196215 8.41474 0.201344 8.59188L4.61702 12.8961L3.57434 18.9745C3.53144 19.2246 3.63425 19.4774 3.83955 19.6265C4.04485 19.7757 4.31704 19.7954 4.54165 19.6773L10 16.8075L15.4584 19.6773C15.683 19.7954 15.9552 19.7757 16.1605 19.6265C16.3658 19.4774 16.4686 19.2246 16.4257 18.9745L15.383 12.8961L19.7987 8.59188C19.9804 8.41474 20.0458 8.14979 19.9674 7.90844C19.889 7.6671 19.6803 7.49121 19.4292 7.45474L13.327 6.5686L10.5978 1.03862Z" fill="#FFCC00"/>
<path d="M35.5978 1.03862C35.4855 0.811059 35.2538 0.666992 35 0.666992C34.7463 0.666992 34.5145 0.811059 34.4022 1.03862L31.673 6.5686L25.5709 7.45474C25.3197 7.49121 25.1111 7.6671 25.0327 7.90844C24.9542 8.14979 25.0196 8.41474 25.2013 8.59188L29.617 12.8961L28.5743 18.9745C28.5314 19.2246 28.6343 19.4774 28.8396 19.6265C29.0449 19.7757 29.317 19.7954 29.5417 19.6773L35 16.8075L40.4584 19.6773C40.683 19.7954 40.9552 19.7757 41.1605 19.6265C41.3658 19.4774 41.4686 19.2246 41.4257 18.9745L40.383 12.8961L44.7987 8.59188C44.9804 8.41474 45.0458 8.14979 44.9674 7.90844C44.889 7.6671 44.6803 7.49121 44.4292 7.45474L38.327 6.5686L35.5978 1.03862Z" fill="#FFCC00"/>
<path d="M60.5978 1.03862C60.4855 0.811059 60.2538 0.666992 60 0.666992C59.7463 0.666992 59.5145 0.811059 59.4022 1.03862L56.673 6.5686L50.5709 7.45474C50.3197 7.49121 50.1111 7.6671 50.0327 7.90844C49.9542 8.14979 50.0196 8.41474 50.2013 8.59188L54.617 12.8961L53.5743 18.9745C53.5314 19.2246 53.6343 19.4774 53.8396 19.6265C54.0449 19.7757 54.317 19.7954 54.5417 19.6773L60 16.8075L65.4584 19.6773C65.683 19.7954 65.9552 19.7757 66.1605 19.6265C66.3658 19.4774 66.4686 19.2246 66.4257 18.9745L65.383 12.8961L69.7987 8.59188C69.9804 8.41474 70.0458 8.14979 69.9674 7.90844C69.889 7.6671 69.6803 7.49121 69.4292 7.45474L63.327 6.5686L60.5978 1.03862Z" fill="#FFCC00"/>
<path d="M85.5978 1.03862C85.4855 0.811059 85.2538 0.666992 85 0.666992C84.7463 0.666992 84.5145 0.811059 84.4022 1.03862L81.673 6.5686L75.5709 7.45474C75.3197 7.49121 75.1111 7.6671 75.0327 7.90844C74.9542 8.14979 75.0196 8.41474 75.2013 8.59188L79.617 12.8961L78.5743 18.9745C78.5314 19.2246 78.6343 19.4774 78.8396 19.6265C79.0449 19.7757 79.317 19.7954 79.5417 19.6773L85 16.8075L90.4584 19.6773C90.683 19.7954 90.9552 19.7757 91.1605 19.6265C91.3658 19.4774 91.4686 19.2246 91.4257 18.9745L90.383 12.8961L94.7987 8.59188C94.9804 8.41474 95.0458 8.14979 94.9674 7.90844C94.889 7.6671 94.6803 7.49121 94.4292 7.45474L88.327 6.5686L85.5978 1.03862Z" fill="#FFCC00"/>
<path d="M110.598 1.03862C110.486 0.811059 110.254 0.666992 110 0.666992C109.746 0.666992 109.514 0.811059 109.402 1.03862L106.673 6.5686L100.571 7.45474C100.32 7.49121 100.111 7.6671 100.033 7.90844C99.9542 8.14979 100.02 8.41474 100.201 8.59188L104.617 12.8961L103.574 18.9745C103.531 19.2246 103.634 19.4774 103.84 19.6265C104.045 19.7757 104.317 19.7954 104.542 19.6773L110 16.8075L115.458 19.6773C115.683 19.7954 115.955 19.7757 116.16 19.6265C116.366 19.4774 116.469 19.2246 116.426 18.9745L115.383 12.8961L119.799 8.59188C119.98 8.41474 120.046 8.14979 119.967 7.90844C119.889 7.6671 119.68 7.49121 119.429 7.45474L113.327 6.5686L110.598 1.03862Z" fill="#FFCC00"/>
</svg>
