<svg width="40" height="40" viewBox="0 0 40 40" fill="none" xmlns="http://www.w3.org/2000/svg">
<rect width="40" height="40" rx="20" fill="white"/>
<path d="M7.01648 20.1361C9.40353 18.7753 12.0681 17.6395 14.5578 16.498C18.841 14.6282 23.1413 12.7908 27.4849 11.0803C28.33 10.7888 29.8485 10.5038 29.9974 11.7999C29.9159 13.6347 29.5805 15.4587 29.3504 17.2827C28.7665 21.2938 28.0916 25.2912 27.4335 29.2891C27.2068 30.6207 25.5949 31.3101 24.5635 30.4579C22.0849 28.7252 19.5872 27.0093 17.1402 25.2364C16.3387 24.3934 17.082 23.1829 17.7979 22.581C19.8393 20.4988 22.0043 18.7298 23.9391 16.54C24.461 15.2356 22.919 16.3349 22.4103 16.6717C19.6156 18.665 16.8892 20.7799 13.9426 22.5317C12.4375 23.3892 10.6833 22.6564 9.17883 22.1779C7.82992 21.5999 5.85326 21.0175 7.01634 20.1362L7.01648 20.1361Z" fill="#333333"/>
</svg>
