<svg width="40" height="40" viewBox="0 0 40 40" fill="none" xmlns="http://www.w3.org/2000/svg">
<rect width="40" height="40" rx="20" fill="url(#paint0_linear_5267_105786)"/>
<path d="M7.01843 20.1366C9.40549 18.7758 12.0701 17.64 14.5598 16.4985C18.843 14.6287 23.1432 12.7913 27.4869 11.0807C28.332 10.7893 29.8505 10.5042 29.9993 11.8004C29.9178 13.6352 29.5824 15.4591 29.3524 17.2831C28.7685 21.2943 28.0936 25.2917 27.4355 29.2896C27.2087 30.6212 25.5968 31.3106 24.5655 30.4584C22.0869 28.7257 19.5892 27.0098 17.1422 25.2369C16.3406 24.3939 17.0839 23.1834 17.7998 22.5815C19.8413 20.4993 22.0063 18.7303 23.9411 16.5405C24.4629 15.2361 22.9209 16.3354 22.4123 16.6722C19.6175 18.6654 16.8911 20.7804 13.9445 22.5322C12.4394 23.3896 10.6852 22.6568 9.18078 22.1783C7.83187 21.6003 5.85522 21.018 7.01829 20.1367L7.01843 20.1366Z" fill="white"/>
<defs>
<linearGradient id="paint0_linear_5267_105786" x1="15.0023" y1="1.668" x2="5.00233" y2="25" gradientUnits="userSpaceOnUse">
<stop stop-color="#37AEE2"/>
<stop offset="1" stop-color="#1E96C8"/>
</linearGradient>
</defs>
</svg>
