<svg width="20" height="20" viewBox="0 0 20 20" fill="none" xmlns="http://www.w3.org/2000/svg">
<path d="M1.50888 9.72812C3.26236 8.76224 5.21974 7.95612 7.04861 7.14587C10.195 5.81874 13.3539 4.51462 16.5446 3.30049C17.1654 3.09362 18.2809 2.8913 18.3902 3.8113C18.3304 5.11355 18.084 6.40818 17.915 7.7028C17.4861 10.5498 16.9903 13.3871 16.5069 16.2247C16.3403 17.1699 15.1562 17.6592 14.3986 17.0543C12.5779 15.8244 10.7431 14.6066 8.94561 13.3482C8.3568 12.7499 8.9028 11.8907 9.42868 11.4634C10.9283 9.98555 12.5187 8.72993 13.9399 7.17568C14.3233 6.24987 13.1906 7.03012 12.8169 7.26918C10.7639 8.68393 8.76118 10.1851 6.59668 11.4284C5.49105 12.0371 4.20243 11.5169 3.0973 11.1773C2.10641 10.7671 0.654402 10.3537 1.50878 9.72818L1.50888 9.72812Z" fill="#27A7E7"/>
</svg>
